<svg xmlns="http://www.w3.org/2000/svg" xmlns:xlink="http://www.w3.org/1999/xlink" width="125" zoomAndPan="magnify" viewBox="0 0 93.75 71.249999" height="95" preserveAspectRatio="xMidYMid meet" version="1.0"><defs><g/></defs><g fill="#000000" fill-opacity="1"><g transform="translate(18.144937, 20.402642)"><g><path d="M 9.5625 0.28125 L 9.28125 0.296875 L 9.03125 0.28125 L 8.6875 0.203125 L 8.40625 0.203125 L 8.03125 0.140625 L 7.8125 0.09375 L 7.453125 0.046875 L 7.140625 -0.0625 L 6.875 -0.140625 L 6.578125 -0.203125 L 6.328125 -0.328125 L 6.03125 -0.4375 L 5.734375 -0.53125 L 5.546875 -0.640625 L 5.265625 -0.78125 L 4.96875 -0.96875 L 4.71875 -1.109375 L 4.453125 -1.3125 L 4.21875 -1.484375 L 4 -1.65625 L 3.78125 -1.890625 L 3.515625 -2.09375 L 3.296875 -2.28125 L 3.1875 -2.515625 L 3 -2.765625 L 2.796875 -2.984375 L 2.5625 -3.234375 L 2.46875 -3.53125 L 2.28125 -3.765625 L 2.1875 -4.015625 L 2.078125 -4.296875 L 1.875 -4.578125 L 1.75 -4.828125 L 1.6875 -5.15625 L 1.59375 -5.40625 L 1.59375 -5.703125 L 1.484375 -6.03125 L 1.40625 -6.296875 L 1.359375 -6.625 L 1.3125 -6.90625 L 1.3125 -7.203125 L 1.296875 -7.5 L 1.265625 -7.78125 L 1.3125 -8.390625 L 1.296875 -8.734375 L 1.25 -9 L 1.359375 -9.328125 L 1.3125 -9.609375 L 1.359375 -9.9375 L 1.484375 -10.1875 L 1.546875 -10.484375 L 1.578125 -10.765625 L 1.734375 -11.0625 L 1.78125 -11.3125 L 1.875 -11.59375 L 2.015625 -11.890625 L 2.171875 -12.1875 L 2.28125 -12.40625 L 2.46875 -12.703125 L 2.546875 -12.90625 L 2.703125 -13.15625 L 2.890625 -13.390625 L 3.125 -13.671875 L 3.328125 -13.875 L 3.53125 -14.0625 L 3.6875 -14.265625 L 4 -14.453125 L 4.203125 -14.6875 L 4.359375 -14.84375 L 4.671875 -15.015625 L 4.890625 -15.15625 L 5.171875 -15.328125 L 5.421875 -15.453125 L 5.640625 -15.609375 L 5.9375 -15.75 L 6.28125 -15.84375 L 6.828125 -16 L 7.140625 -16.125 L 7.390625 -16.1875 L 7.625 -16.234375 L 7.984375 -16.28125 L 8.21875 -16.34375 L 8.546875 -16.375 L 8.84375 -16.375 L 9.171875 -16.421875 L 9.40625 -16.390625 L 10.046875 -16.421875 L 10.421875 -16.390625 L 10.671875 -16.375 L 11 -16.375 L 11.3125 -16.328125 L 11.890625 -16.28125 L 12.140625 -16.1875 L 12.515625 -16.140625 L 12.71875 -16.125 L 13.09375 -16.03125 L 13.296875 -15.90625 L 13.671875 -15.84375 L 13.953125 -15.75 L 14.21875 -15.65625 L 14.453125 -15.5625 L 14.734375 -15.40625 L 15.03125 -15.3125 L 15.28125 -15.15625 L 15.5 -15.015625 L 15.796875 -14.84375 L 15.953125 -14.453125 L 15.734375 -14.25 L 15.609375 -13.953125 L 15.46875 -13.765625 L 15.3125 -13.484375 L 14.96875 -13.421875 L 14.640625 -13.515625 L 14.4375 -13.6875 L 14.140625 -13.8125 L 13.875 -13.953125 L 13.515625 -14.046875 L 13.25 -14.15625 L 12.953125 -14.203125 L 12.671875 -14.296875 L 12.359375 -14.359375 L 12.125 -14.484375 L 11.796875 -14.546875 L 11.453125 -14.578125 L 10.859375 -14.671875 L 10.546875 -14.734375 L 10.328125 -14.703125 L 10 -14.734375 L 9.328125 -14.75 L 9.078125 -14.75 L 8.796875 -14.6875 L 8.46875 -14.671875 L 8.125 -14.625 L 7.875 -14.53125 L 7.59375 -14.484375 L 7.328125 -14.40625 L 6.953125 -14.3125 L 6.765625 -14.203125 L 6.484375 -14.015625 L 6.140625 -13.921875 L 5.890625 -13.734375 L 5.640625 -13.625 L 5.40625 -13.390625 L 5.125 -13.25 L 4.921875 -13 L 4.71875 -12.84375 L 4.5 -12.5625 L 4.359375 -12.375 L 4.140625 -12.140625 L 4.015625 -11.84375 L 3.859375 -11.609375 L 3.671875 -11.34375 L 3.609375 -11.078125 L 3.515625 -10.78125 L 3.375 -10.5 L 3.28125 -10.1875 L 3.234375 -9.9375 L 3.125 -9.625 L 3.078125 -9.359375 L 3.046875 -9.03125 L 3.046875 -8.703125 L 3.09375 -8.40625 L 3.078125 -7.8125 L 3.046875 -7.546875 L 3.046875 -7.25 L 3.078125 -6.90625 L 3.140625 -6.65625 L 3.203125 -6.328125 L 3.28125 -6.046875 L 3.390625 -5.734375 L 3.4375 -5.46875 L 3.578125 -5.203125 L 3.6875 -4.890625 L 3.828125 -4.671875 L 3.921875 -4.4375 L 4.09375 -4.15625 L 4.34375 -3.90625 L 4.5 -3.671875 L 4.625 -3.46875 L 4.921875 -3.203125 L 5.0625 -3.03125 L 5.328125 -2.84375 L 5.546875 -2.65625 L 5.796875 -2.46875 L 6 -2.359375 L 6.28125 -2.171875 L 6.578125 -2.078125 L 6.8125 -1.96875 L 7.0625 -1.796875 L 7.359375 -1.75 L 7.71875 -1.6875 L 7.984375 -1.59375 L 8.21875 -1.5 L 8.59375 -1.484375 L 8.890625 -1.4375 L 9.21875 -1.390625 L 9.484375 -1.4375 L 10.015625 -1.4375 L 10.375 -1.40625 L 10.640625 -1.453125 L 10.921875 -1.453125 L 11.171875 -1.5 L 11.5625 -1.59375 L 11.84375 -1.609375 L 12.140625 -1.703125 L 12.421875 -1.78125 L 12.65625 -1.875 L 13.28125 -1.984375 L 13.53125 -2.140625 L 13.734375 -2.234375 L 14.046875 -2.375 L 14.25 -2.515625 L 14.59375 -2.890625 L 14.546875 -3.1875 L 14.53125 -3.484375 L 14.546875 -3.78125 L 14.625 -4.140625 L 14.625 -4.390625 L 14.59375 -4.734375 L 14.546875 -5.03125 L 14.625 -5.328125 L 14.53125 -5.609375 L 14.59375 -5.9375 L 14.578125 -6.234375 L 14.59375 -6.484375 L 14.59375 -6.828125 L 14.21875 -7.09375 L 14 -7.140625 L 13.671875 -7.09375 L 13.328125 -7.109375 L 13 -7.109375 L 12.65625 -7.09375 L 12.421875 -7.109375 L 12.140625 -7.140625 L 11.75 -7.09375 L 11.21875 -7.140625 L 10.8125 -7.140625 L 10.578125 -7.109375 L 10.296875 -7.09375 L 9.953125 -7.140625 L 9.609375 -7.09375 L 9.28125 -7.40625 L 9.3125 -7.6875 L 9.3125 -8.203125 L 9.359375 -8.5 L 9.578125 -8.828125 L 9.953125 -8.796875 L 10.1875 -8.828125 L 10.546875 -8.78125 L 10.8125 -8.796875 L 11.171875 -8.828125 L 11.5 -8.796875 L 11.796875 -8.828125 L 12.0625 -8.796875 L 12.40625 -8.796875 L 12.625 -8.828125 L 14.15625 -8.828125 L 14.53125 -8.78125 L 14.84375 -8.78125 L 15.109375 -8.796875 L 16 -8.796875 L 16.390625 -8.46875 L 16.328125 -8.203125 L 16.296875 -7.890625 L 16.296875 -7.25 L 16.375 -6.96875 L 16.328125 -6.671875 L 16.296875 -6.328125 L 16.296875 -6.03125 L 16.375 -5.734375 L 16.296875 -5.40625 L 16.34375 -5.15625 L 16.328125 -4.796875 L 16.296875 -4.53125 L 16.328125 -4.1875 L 16.328125 -3.875 L 16.34375 -3.609375 L 16.296875 -3.28125 L 16.328125 -2.984375 L 16.390625 -2.65625 L 16.34375 -2.359375 L 16.328125 -2.09375 L 16.140625 -1.578125 L 15.84375 -1.40625 L 15.6875 -1.21875 L 15.40625 -1.109375 L 15.109375 -0.953125 L 14.828125 -0.78125 L 14.640625 -0.671875 L 14.359375 -0.546875 L 14.015625 -0.46875 L 13.8125 -0.328125 L 13.4375 -0.234375 L 13.15625 -0.1875 L 12.859375 -0.09375 L 12.59375 -0.046875 L 12.28125 0.015625 L 11.984375 0.0625 L 11.734375 0.1875 L 11.359375 0.1875 L 11.0625 0.25 L 10.765625 0.234375 L 10.53125 0.296875 L 10.203125 0.296875 Z M 9.5625 0.28125 "/></g></g></g><g fill="#000000" fill-opacity="1"><g transform="translate(36.316309, 20.402642)"><g><path d="M 2.625 -14.171875 L 2.421875 -14.25 L 2.1875 -14.40625 L 2.015625 -14.703125 L 1.921875 -14.9375 L 1.84375 -15.5625 L 2.015625 -15.84375 L 2.140625 -16.125 L 2.359375 -16.28125 L 2.671875 -16.390625 L 3.296875 -16.421875 L 3.859375 -16.125 L 4 -15.890625 L 4.0625 -15.5625 L 4.109375 -14.96875 L 4.046875 -14.671875 L 3.78125 -14.453125 L 3.5625 -14.25 L 3.28125 -14.140625 Z M 2.140625 -0.296875 L 2.171875 -0.578125 L 2.140625 -0.90625 L 2.125 -1.203125 L 2.09375 -1.484375 L 2.09375 -2.09375 L 2.078125 -2.359375 L 2.140625 -2.671875 L 2.171875 -2.984375 L 2.125 -3.234375 L 2.078125 -3.5625 L 2.140625 -3.859375 L 2.140625 -4.140625 L 2.171875 -4.484375 L 2.125 -4.75 L 2.078125 -5.078125 L 2.09375 -5.375 L 2.171875 -5.640625 L 2.125 -5.984375 L 2.171875 -6.21875 L 2.140625 -6.53125 L 2.171875 -6.828125 L 2.171875 -7.140625 L 2.125 -7.40625 L 2.171875 -8.0625 L 2.078125 -8.359375 L 2.140625 -8.609375 L 2.140625 -8.921875 L 2.09375 -9.1875 L 2.125 -9.484375 L 2.078125 -9.796875 L 2.078125 -10.140625 L 2.171875 -10.4375 L 2.171875 -10.734375 L 2.078125 -11.015625 L 2.171875 -11.3125 L 2.09375 -11.609375 L 2.375 -11.96875 L 2.9375 -11.96875 L 3.328125 -12.015625 L 3.578125 -12.03125 L 3.859375 -11.734375 L 3.859375 -11.4375 L 3.90625 -11.125 L 3.90625 -10.8125 L 3.8125 -10.546875 L 3.8125 -10.25 L 3.875 -9.9375 L 3.90625 -9.65625 L 3.828125 -9.3125 L 3.875 -9.03125 L 3.90625 -8.75 L 3.90625 -8.421875 L 3.828125 -8.125 L 3.875 -7.8125 L 3.8125 -7.53125 L 3.90625 -7.25 L 3.828125 -6.953125 L 3.90625 -6.65625 L 3.828125 -6.34375 L 3.8125 -6 L 3.828125 -5.703125 L 3.90625 -5.40625 L 3.859375 -5.125 L 3.859375 -4.53125 L 3.90625 -4.21875 L 3.828125 -3.875 L 3.8125 -3.625 L 3.8125 -3.296875 L 3.90625 -2.984375 L 3.8125 -2.703125 L 3.90625 -2.375 L 3.875 -2.078125 L 3.828125 -1.828125 L 3.828125 -1.53125 L 3.875 -1.21875 L 3.828125 -0.90625 L 3.8125 -0.625 L 3.828125 -0.28125 L 3.5625 -0.015625 L 3.328125 0.015625 L 2.953125 -0.015625 L 2.671875 -0.015625 L 2.421875 0.015625 Z M 2.140625 -0.296875 "/></g></g></g><g fill="#000000" fill-opacity="1"><g transform="translate(42.296471, 20.402642)"><g><path d="M 8.03125 -12.234375 L 8.296875 -12.265625 L 8.65625 -12.21875 L 8.875 -12.140625 L 9.171875 -12.125 L 9.53125 -12.03125 L 9.75 -11.96875 L 10.109375 -11.84375 L 10.390625 -11.734375 L 10.484375 -11.3125 L 10.34375 -11.078125 L 10.328125 -10.765625 L 10.15625 -10.5 L 9.8125 -10.28125 L 9.515625 -10.375 L 9.234375 -10.4375 L 8.9375 -10.53125 L 8.640625 -10.53125 L 8.359375 -10.625 L 8.03125 -10.59375 L 7.71875 -10.671875 L 7.234375 -10.671875 L 6.921875 -10.640625 L 6.5625 -10.578125 L 6.328125 -10.484375 L 5.953125 -10.390625 L 5.703125 -10.234375 L 5.515625 -10.140625 L 5.28125 -9.953125 L 5.0625 -9.71875 L 4.796875 -9.53125 L 4.59375 -9.328125 L 4.4375 -9.03125 L 4.34375 -8.828125 L 4.203125 -8.5 L 4.109375 -8.25 L 4.015625 -7.9375 L 3.953125 -7.625 L 4.015625 -7.34375 L 3.953125 -6.71875 L 4 -6.421875 L 3.953125 -6.09375 L 3.953125 -5.8125 L 4 -5.46875 L 3.953125 -5.15625 L 3.953125 -4.59375 L 4 -4.265625 L 3.921875 -3.96875 L 3.953125 -3.671875 L 4.015625 -3.34375 L 3.921875 -3.03125 L 4.015625 -2.703125 L 4 -2.453125 L 4.015625 -2.09375 L 3.953125 -1.796875 L 3.921875 -1.53125 L 4.015625 -1.203125 L 3.96875 -0.90625 L 4 -0.59375 L 3.953125 -0.328125 L 3.65625 -0.015625 L 3.390625 -0.015625 L 3.046875 0.015625 L 2.859375 0.015625 L 2.515625 -0.015625 L 2.28125 -0.28125 L 2.1875 -0.59375 L 2.1875 -0.90625 L 2.265625 -1.21875 L 2.265625 -1.484375 L 2.1875 -1.796875 L 2.265625 -2.09375 L 2.21875 -2.40625 L 2.234375 -2.703125 L 2.28125 -3 L 2.1875 -3.28125 L 2.265625 -3.609375 L 2.265625 -3.875 L 2.28125 -4.203125 L 2.21875 -4.5 L 2.265625 -4.796875 L 2.234375 -5.078125 L 2.28125 -5.40625 L 2.28125 -5.6875 L 2.234375 -6.03125 L 2.265625 -6.578125 L 2.171875 -6.921875 L 2.265625 -7.1875 L 2.234375 -7.5 L 2.1875 -7.78125 L 2.234375 -8.109375 L 2.234375 -8.390625 L 2.140625 -8.6875 L 2.171875 -8.953125 L 2.171875 -9.3125 L 2.1875 -9.609375 L 2.140625 -9.859375 L 2.1875 -10.1875 L 2.171875 -10.4375 L 2.078125 -10.765625 L 2.140625 -11.078125 L 2.0625 -11.3125 L 2.125 -11.609375 L 2.3125 -11.9375 L 2.65625 -12.015625 L 2.9375 -12.03125 L 3.1875 -12.078125 L 3.515625 -12.125 L 3.78125 -11.828125 L 3.828125 -11.5625 L 3.8125 -11.265625 L 3.828125 -10.96875 L 3.90625 -10.625 L 4.046875 -10.546875 L 4.25 -10.8125 L 4.484375 -11.015625 L 4.640625 -11.21875 L 4.828125 -11.390625 L 5.125 -11.59375 L 5.40625 -11.75 L 5.65625 -11.875 L 5.890625 -12.015625 L 6.234375 -12.078125 L 6.484375 -12.171875 L 6.859375 -12.21875 L 7.046875 -12.21875 L 7.359375 -12.234375 Z M 8.03125 -12.234375 "/></g></g></g><g fill="#000000" fill-opacity="1"><g transform="translate(53.263947, 20.402642)"><g><path d="M 4.390625 0.09375 L 4.109375 0.046875 L 3.859375 0.015625 L 3.5625 -0.109375 L 3.234375 -0.25 L 3.046875 -0.421875 L 2.71875 -0.578125 L 2.625 -0.859375 L 2.359375 -1.078125 L 2.234375 -1.390625 L 2.140625 -1.640625 L 2.125 -1.921875 L 1.984375 -2.265625 L 2.03125 -2.5625 L 1.984375 -3.1875 L 2.0625 -3.46875 L 2.03125 -3.765625 L 2.015625 -4.09375 L 1.96875 -4.359375 L 2.03125 -4.671875 L 2.0625 -4.984375 L 2.03125 -5.28125 L 2.0625 -5.59375 L 2.0625 -6.1875 L 1.984375 -6.484375 L 2.015625 -6.796875 L 1.96875 -7.109375 L 2.0625 -7.390625 L 2.03125 -7.734375 L 2.015625 -8.03125 L 2.0625 -8.359375 L 2.0625 -8.640625 L 1.96875 -8.953125 L 2.015625 -9.234375 L 2.0625 -9.5625 L 2.015625 -9.859375 L 2.015625 -10.1875 L 2.03125 -10.46875 L 1.96875 -10.78125 L 2.03125 -11.03125 L 1.96875 -11.390625 L 1.984375 -11.65625 L 2.015625 -11.96875 L 2.0625 -12.28125 L 2.03125 -12.59375 L 2.015625 -12.859375 L 2.015625 -13.46875 L 2.0625 -13.78125 L 1.984375 -14.0625 L 2.0625 -14.359375 L 1.984375 -14.703125 L 1.96875 -15.03125 L 2.0625 -15.28125 L 2.0625 -15.640625 L 2.015625 -15.9375 L 2.03125 -16.1875 L 2.03125 -16.53125 L 2.28125 -16.859375 L 2.59375 -16.90625 L 3.234375 -16.90625 L 3.515625 -16.96875 L 3.734375 -16.65625 L 3.6875 -16.390625 L 3.734375 -16.09375 L 3.71875 -15.765625 L 3.734375 -15.5 L 3.6875 -15.203125 L 3.71875 -14.875 L 3.71875 -14.578125 L 3.6875 -14.265625 L 3.71875 -14 L 3.765625 -13.671875 L 3.78125 -13.34375 L 3.6875 -13.09375 L 3.734375 -12.796875 L 3.734375 -12.46875 L 3.78125 -12.1875 L 3.71875 -11.84375 L 3.765625 -11.5625 L 3.78125 -11.296875 L 3.734375 -10.96875 L 3.765625 -10.6875 L 3.6875 -10.375 L 3.734375 -10.0625 L 3.734375 -9.71875 L 3.71875 -9.453125 L 3.765625 -9.171875 L 3.734375 -8.875 L 3.78125 -8.546875 L 3.765625 -8.265625 L 3.734375 -7.9375 L 3.765625 -7.671875 L 3.78125 -7.359375 L 3.6875 -7.046875 L 3.6875 -6.75 L 3.78125 -6.421875 L 3.6875 -6.125 L 3.78125 -5.8125 L 3.6875 -5.5625 L 3.71875 -5.21875 L 3.765625 -4.9375 L 3.6875 -4.640625 L 3.734375 -4.046875 L 3.78125 -3.765625 L 3.6875 -3.421875 L 3.78125 -2.8125 L 3.8125 -2.5 L 3.8125 -2.21875 L 4 -1.9375 L 4.453125 -1.546875 L 4.734375 -1.5 L 5.59375 -1.5 L 5.890625 -1.484375 L 6.125 -1.578125 L 6.390625 -1.3125 L 6.46875 -0.96875 L 6.4375 -0.671875 L 6.375 -0.34375 L 5.984375 0.015625 L 5.703125 0.046875 L 5.40625 0.140625 L 5.078125 0.109375 Z M 4.390625 0.09375 "/></g></g></g><g fill="#000000" fill-opacity="1"><g transform="translate(60.144587, 20.402642)"><g><path d="M 6.125 0.25 L 5.765625 0.296875 L 5.421875 0.234375 L 5.21875 0.1875 L 4.875 0.140625 L 4.59375 0.109375 L 4.3125 0.015625 L 4 -0.015625 L 3.765625 -0.109375 L 2.890625 -0.375 L 2.59375 -0.53125 L 2.375 -0.640625 L 2.03125 -0.828125 L 1.84375 -0.921875 L 1.59375 -1.109375 L 1.265625 -1.265625 L 1.265625 -1.75 L 1.453125 -2.03125 L 1.640625 -2.28125 L 1.75 -2.59375 L 2.1875 -2.703125 L 2.453125 -2.515625 L 2.65625 -2.3125 L 2.90625 -2.171875 L 3.203125 -2.0625 L 3.5625 -1.9375 L 3.828125 -1.84375 L 4.140625 -1.75 L 4.359375 -1.609375 L 4.640625 -1.59375 L 5.015625 -1.484375 L 5.25 -1.453125 L 5.609375 -1.390625 L 5.90625 -1.359375 L 6.234375 -1.359375 L 6.859375 -1.34375 L 7.09375 -1.359375 L 7.453125 -1.40625 L 7.78125 -1.4375 L 8.078125 -1.484375 L 8.3125 -1.578125 L 8.640625 -1.640625 L 8.921875 -1.703125 L 9.484375 -2.0625 L 9.71875 -2.234375 L 9.859375 -2.46875 L 10.046875 -2.71875 L 10.140625 -3 L 10.109375 -3.625 L 10.046875 -3.859375 L 9.90625 -4.109375 L 9.75 -4.34375 L 9.453125 -4.53125 L 9.1875 -4.671875 L 8.9375 -4.75 L 8.640625 -4.890625 L 8.359375 -4.9375 L 8.015625 -5.03125 L 7.71875 -5.0625 L 7.34375 -5.125 L 7 -5.125 L 6.703125 -5.203125 L 6.03125 -5.25 L 5.796875 -5.265625 L 5.453125 -5.328125 L 5.15625 -5.328125 L 4.921875 -5.421875 L 4.21875 -5.59375 L 4.046875 -5.65625 L 3.71875 -5.765625 L 3.421875 -5.84375 L 3.140625 -5.984375 L 2.84375 -6.140625 L 2.59375 -6.296875 L 2.40625 -6.515625 L 2.1875 -6.671875 L 2.015625 -6.90625 L 1.796875 -7.15625 L 1.640625 -7.453125 L 1.546875 -7.734375 L 1.5 -8.03125 L 1.390625 -8.3125 L 1.453125 -8.890625 L 1.4375 -9.1875 L 1.53125 -9.46875 L 1.53125 -9.75 L 1.6875 -10 L 1.75 -10.25 L 2.015625 -10.5 L 2.09375 -10.765625 L 2.28125 -10.921875 L 2.59375 -11.171875 L 2.796875 -11.3125 L 3.03125 -11.484375 L 3.328125 -11.609375 L 3.515625 -11.734375 L 3.78125 -11.875 L 4.09375 -11.9375 L 4.390625 -12.0625 L 4.71875 -12.0625 L 4.96875 -12.140625 L 5.359375 -12.171875 L 5.640625 -12.1875 L 5.890625 -12.234375 L 6.265625 -12.265625 L 6.828125 -12.21875 L 7.15625 -12.21875 L 7.390625 -12.234375 L 7.71875 -12.171875 L 8.0625 -12.140625 L 8.359375 -12.078125 L 8.640625 -12.078125 L 8.84375 -11.984375 L 9.171875 -11.921875 L 9.515625 -11.828125 L 9.703125 -11.75 L 10 -11.640625 L 10.59375 -11.453125 L 10.859375 -11.3125 L 11.0625 -11.125 L 11.21875 -10.71875 L 11.015625 -10.46875 L 10.921875 -10.1875 L 10.734375 -9.953125 L 10.390625 -9.84375 L 10.109375 -9.90625 L 9.84375 -10.0625 L 9.5625 -10.1875 L 9.171875 -10.25 L 8.921875 -10.328125 L 8.65625 -10.390625 L 8.34375 -10.5 L 8.0625 -10.546875 L 7.6875 -10.546875 L 7.390625 -10.640625 L 7.046875 -10.671875 L 6.796875 -10.640625 L 6.171875 -10.640625 L 5.84375 -10.625 L 5.515625 -10.59375 L 5.28125 -10.578125 L 4.890625 -10.484375 L 4.625 -10.390625 L 4.0625 -10.1875 L 3.765625 -10 L 3.578125 -9.84375 L 3.421875 -9.609375 L 3.234375 -9.359375 L 3.09375 -9.046875 L 3.1875 -8.453125 L 3.203125 -8.203125 L 3.390625 -7.921875 L 3.578125 -7.71875 L 3.78125 -7.53125 L 4 -7.4375 L 4.34375 -7.328125 L 4.59375 -7.203125 L 4.828125 -7.109375 L 5.171875 -7 L 5.5 -6.96875 L 5.734375 -6.875 L 6.046875 -6.859375 L 6.328125 -6.796875 L 6.578125 -6.796875 L 7.28125 -6.703125 L 7.578125 -6.671875 L 7.890625 -6.625 L 8.203125 -6.609375 L 8.40625 -6.5625 L 8.703125 -6.484375 L 9.046875 -6.4375 L 9.328125 -6.328125 L 9.578125 -6.28125 L 9.953125 -6.171875 L 10.1875 -6.03125 L 10.46875 -5.859375 L 10.734375 -5.703125 L 11.015625 -5.546875 L 11.21875 -5.359375 L 11.40625 -5.109375 L 11.53125 -4.84375 L 11.640625 -4.578125 L 11.734375 -4.265625 L 11.796875 -4 L 11.9375 -3.71875 L 11.9375 -3.125 L 11.796875 -2.796875 L 11.84375 -2.546875 L 11.734375 -2.21875 L 11.546875 -2.015625 L 11.484375 -1.734375 L 11.25 -1.484375 L 11.03125 -1.265625 L 10.828125 -1.046875 L 10.59375 -0.90625 L 10.421875 -0.6875 L 10.09375 -0.53125 L 9.84375 -0.4375 L 9.578125 -0.28125 L 9.375 -0.15625 L 9.09375 -0.09375 L 8.734375 0.015625 L 8.421875 0.046875 L 8.15625 0.140625 L 7.890625 0.203125 L 7.546875 0.25 L 7.296875 0.25 L 6.96875 0.296875 Z M 6.125 0.25 "/></g></g></g><g fill="#000000" fill-opacity="1"><g transform="translate(73.12114, 20.402642)"><g/></g></g><g fill="#000000" fill-opacity="1"><g transform="translate(54.011303, 40.90475)"><g><path d="M 2.625 -14.171875 L 2.421875 -14.25 L 2.1875 -14.40625 L 2.015625 -14.703125 L 1.921875 -14.9375 L 1.84375 -15.5625 L 2.015625 -15.84375 L 2.140625 -16.125 L 2.359375 -16.28125 L 2.671875 -16.390625 L 3.296875 -16.421875 L 3.859375 -16.125 L 4 -15.890625 L 4.0625 -15.5625 L 4.109375 -14.96875 L 4.046875 -14.671875 L 3.78125 -14.453125 L 3.5625 -14.25 L 3.28125 -14.140625 Z M 2.140625 -0.296875 L 2.171875 -0.578125 L 2.140625 -0.90625 L 2.125 -1.203125 L 2.09375 -1.484375 L 2.09375 -2.09375 L 2.078125 -2.359375 L 2.140625 -2.671875 L 2.171875 -2.984375 L 2.125 -3.234375 L 2.078125 -3.5625 L 2.140625 -3.859375 L 2.140625 -4.140625 L 2.171875 -4.484375 L 2.125 -4.75 L 2.078125 -5.078125 L 2.09375 -5.375 L 2.171875 -5.640625 L 2.125 -5.984375 L 2.171875 -6.21875 L 2.140625 -6.53125 L 2.171875 -6.828125 L 2.171875 -7.140625 L 2.125 -7.40625 L 2.171875 -8.0625 L 2.078125 -8.359375 L 2.140625 -8.609375 L 2.140625 -8.921875 L 2.09375 -9.1875 L 2.125 -9.484375 L 2.078125 -9.796875 L 2.078125 -10.140625 L 2.171875 -10.4375 L 2.171875 -10.734375 L 2.078125 -11.015625 L 2.171875 -11.3125 L 2.09375 -11.609375 L 2.375 -11.96875 L 2.9375 -11.96875 L 3.328125 -12.015625 L 3.578125 -12.03125 L 3.859375 -11.734375 L 3.859375 -11.4375 L 3.90625 -11.125 L 3.90625 -10.8125 L 3.8125 -10.546875 L 3.8125 -10.25 L 3.875 -9.9375 L 3.90625 -9.65625 L 3.828125 -9.3125 L 3.875 -9.03125 L 3.90625 -8.75 L 3.90625 -8.421875 L 3.828125 -8.125 L 3.875 -7.8125 L 3.8125 -7.53125 L 3.90625 -7.25 L 3.828125 -6.953125 L 3.90625 -6.65625 L 3.828125 -6.34375 L 3.8125 -6 L 3.828125 -5.703125 L 3.90625 -5.40625 L 3.859375 -5.125 L 3.859375 -4.53125 L 3.90625 -4.21875 L 3.828125 -3.875 L 3.8125 -3.625 L 3.8125 -3.296875 L 3.90625 -2.984375 L 3.8125 -2.703125 L 3.90625 -2.375 L 3.875 -2.078125 L 3.828125 -1.828125 L 3.828125 -1.53125 L 3.875 -1.21875 L 3.828125 -0.90625 L 3.8125 -0.625 L 3.828125 -0.28125 L 3.5625 -0.015625 L 3.328125 0.015625 L 2.953125 -0.015625 L 2.671875 -0.015625 L 2.421875 0.015625 Z M 2.140625 -0.296875 "/></g></g></g><g fill="#000000" fill-opacity="1"><g transform="translate(59.991466, 40.90475)"><g><path d="M 8.546875 -12.234375 L 8.84375 -12.28125 L 9.1875 -12.21875 L 9.515625 -12.1875 L 9.71875 -12.125 L 10.0625 -12.078125 L 10.390625 -12.015625 L 10.59375 -11.890625 L 10.875 -11.78125 L 11.171875 -11.640625 L 11.4375 -11.484375 L 11.703125 -11.34375 L 11.84375 -11.171875 L 12.09375 -11 L 12.265625 -10.71875 L 12.5 -10.5 L 12.65625 -10.25 L 12.75 -10.046875 L 12.9375 -9.71875 L 13 -9.453125 L 13.15625 -9.21875 L 13.15625 -8.9375 L 13.28125 -8.609375 L 13.28125 -8.34375 L 13.421875 -8.015625 L 13.4375 -7.6875 L 13.4375 -7.40625 L 13.375 -6.859375 L 13.421875 -6.5625 L 13.421875 -6.21875 L 13.375 -5.953125 L 13.46875 -5.640625 L 13.46875 -5.328125 L 13.421875 -5.0625 L 13.421875 -4.75 L 13.4375 -4.484375 L 13.46875 -4.1875 L 13.375 -3.828125 L 13.4375 -3.578125 L 13.4375 -3.234375 L 13.375 -2.953125 L 13.4375 -2.65625 L 13.46875 -2.359375 L 13.46875 -2.078125 L 13.390625 -1.796875 L 13.4375 -1.15625 L 13.421875 -0.859375 L 13.390625 -0.578125 L 13.390625 -0.28125 L 13.125 0.046875 L 12.796875 -0.015625 L 11.921875 -0.015625 L 11.65625 -0.296875 L 11.65625 -0.578125 L 11.734375 -0.859375 L 11.734375 -1.203125 L 11.65625 -1.484375 L 11.703125 -1.734375 L 11.703125 -2.0625 L 11.640625 -2.328125 L 11.65625 -2.671875 L 11.65625 -2.9375 L 11.734375 -3.25 L 11.734375 -3.5625 L 11.640625 -3.828125 L 11.734375 -4.140625 L 11.65625 -4.453125 L 11.703125 -4.734375 L 11.703125 -5.328125 L 11.640625 -5.609375 L 11.703125 -5.90625 L 11.703125 -6.484375 L 11.734375 -6.828125 L 11.609375 -7.390625 L 11.59375 -7.6875 L 11.65625 -7.96875 L 11.546875 -8.3125 L 11.484375 -8.59375 L 11.359375 -8.84375 L 11.203125 -9.09375 L 11.0625 -9.359375 L 10.921875 -9.578125 L 10.671875 -9.84375 L 10.53125 -9.96875 L 10.234375 -10.15625 L 9.9375 -10.296875 L 9.453125 -10.484375 L 9.140625 -10.5 L 8.828125 -10.546875 L 8.5625 -10.625 L 7.578125 -10.625 L 7.34375 -10.578125 L 7.015625 -10.59375 L 6.703125 -10.5 L 6.421875 -10.4375 L 6.171875 -10.328125 L 5.90625 -10.25 L 5.65625 -10.109375 L 5.328125 -9.953125 L 5.125 -9.796875 L 4.890625 -9.609375 L 4.75 -9.40625 L 4.578125 -9.140625 L 4.40625 -8.921875 L 4.21875 -8.609375 L 4.1875 -8.40625 L 4.109375 -8.0625 L 4.046875 -7.828125 L 4 -7.484375 L 3.921875 -7.234375 L 3.90625 -6.578125 L 3.875 -6.328125 L 3.875 -5.984375 L 3.953125 -5.734375 L 3.875 -5.421875 L 3.953125 -5.109375 L 3.875 -4.796875 L 3.90625 -4.5 L 3.875 -4.1875 L 3.875 -3.578125 L 3.953125 -3.296875 L 3.90625 -2.984375 L 3.921875 -2.671875 L 3.875 -2.375 L 3.953125 -2.078125 L 3.90625 -1.828125 L 3.953125 -1.53125 L 3.96875 -1.203125 L 3.90625 -0.921875 L 3.953125 -0.578125 L 3.953125 -0.28125 L 3.609375 0.046875 L 3.34375 -0.015625 L 3.046875 -0.015625 L 2.796875 0.015625 L 2.421875 0.046875 L 2.234375 -0.28125 L 2.234375 -0.625 L 2.171875 -0.90625 L 2.171875 -1.5 L 2.21875 -1.796875 L 2.1875 -2.125 L 2.171875 -2.40625 L 2.21875 -2.71875 L 2.234375 -3.03125 L 2.171875 -3.328125 L 2.234375 -3.625 L 2.1875 -3.90625 L 2.21875 -4.1875 L 2.171875 -4.53125 L 2.171875 -5.109375 L 2.140625 -5.421875 L 2.234375 -5.984375 L 2.140625 -6.578125 L 2.125 -6.90625 L 2.125 -7.203125 L 2.1875 -7.53125 L 2.21875 -7.8125 L 2.140625 -8.078125 L 2.125 -8.421875 L 2.1875 -8.703125 L 2.21875 -8.984375 L 2.171875 -9.3125 L 2.140625 -9.578125 L 2.1875 -9.90625 L 2.078125 -10.15625 L 2.09375 -10.46875 L 2.09375 -10.8125 L 2.125 -11.0625 L 2.0625 -11.390625 L 2.078125 -11.640625 L 2.40625 -11.96875 L 2.609375 -12.0625 L 2.984375 -12.03125 L 3.234375 -12.125 L 3.53125 -12.140625 L 3.875 -11.84375 L 3.78125 -11.53125 L 3.90625 -11.203125 L 3.8125 -10.90625 L 3.859375 -10.578125 L 4.015625 -10.484375 L 4.25 -10.734375 L 4.5 -10.90625 L 4.640625 -11.15625 L 4.921875 -11.3125 L 5.15625 -11.4375 L 5.421875 -11.59375 L 5.703125 -11.78125 L 5.984375 -11.875 L 6.265625 -11.9375 L 6.46875 -12.0625 L 6.828125 -12.125 L 7.046875 -12.171875 L 7.40625 -12.1875 L 7.734375 -12.265625 L 8.03125 -12.234375 Z M 8.546875 -12.234375 "/></g></g></g><g fill="#000000" fill-opacity="1"><g transform="translate(18.773307, 61.406857)"><g><path d="M 13.8125 -15.890625 L 13.828125 -15.59375 L 13.8125 -15.3125 L 13.765625 -15.03125 L 13.734375 -14.75 L 13.421875 -14.5 L 13.125 -14.5 L 12.890625 -14.453125 L 12.5625 -14.5 L 12.234375 -14.453125 L 11.9375 -14.484375 L 11.6875 -14.484375 L 11.359375 -14.453125 L 11.078125 -14.484375 L 10.6875 -14.453125 L 10.4375 -14.453125 L 10.140625 -14.5 L 9.484375 -14.5 L 9.265625 -14.484375 L 8.890625 -14.484375 L 8.65625 -14.453125 L 8.3125 -14.484375 L 8.0625 -14.15625 L 7.984375 -13.859375 L 8.015625 -13.53125 L 8.078125 -13.234375 L 8.078125 -12.9375 L 8.03125 -12.65625 L 8.015625 -12.328125 L 8.0625 -12.03125 L 8.03125 -11.78125 L 8.03125 -11.484375 L 8.015625 -11.15625 L 8.015625 -10.828125 L 8.0625 -10.53125 L 7.984375 -10.28125 L 8.015625 -9.953125 L 8.0625 -9.65625 L 8.0625 -9.359375 L 7.984375 -9 L 8.03125 -8.75 L 8.015625 -8.421875 L 8.03125 -8.125 L 8.0625 -7.859375 L 8.0625 -7.53125 L 8.078125 -7.234375 L 8.078125 -6.625 L 8.015625 -6.328125 L 8.015625 -6.03125 L 8.0625 -5.734375 L 7.984375 -5.421875 L 8.015625 -5.125 L 8.0625 -4.84375 L 8.078125 -4.53125 L 8.0625 -4.21875 L 8.03125 -3.90625 L 8.03125 -3.03125 L 8.078125 -2.71875 L 7.984375 -2.421875 L 8.078125 -2.078125 L 8.078125 -1.828125 L 7.984375 -1.484375 L 8.078125 -1.203125 L 8.078125 -0.90625 L 8.015625 -0.59375 L 7.984375 -0.328125 L 7.765625 -0.015625 L 7.1875 -0.015625 L 6.859375 0.015625 L 6.609375 0.046875 L 6.28125 -0.28125 L 6.328125 -0.59375 L 6.28125 -0.875 L 6.28125 -1.203125 L 6.265625 -1.5 L 6.265625 -1.78125 L 6.28125 -2.125 L 6.265625 -2.375 L 6.328125 -2.71875 L 6.328125 -3 L 6.234375 -3.28125 L 6.328125 -3.578125 L 6.28125 -4.21875 L 6.328125 -4.484375 L 6.328125 -5.109375 L 6.234375 -5.40625 L 6.265625 -5.75 L 6.328125 -6 L 6.328125 -6.328125 L 6.234375 -6.65625 L 6.265625 -6.953125 L 6.234375 -7.203125 L 6.234375 -7.53125 L 6.265625 -7.828125 L 6.234375 -8.125 L 6.328125 -8.421875 L 6.296875 -8.734375 L 6.296875 -9.046875 L 6.328125 -9.359375 L 6.234375 -9.65625 L 6.265625 -9.9375 L 6.328125 -10.234375 L 6.234375 -10.53125 L 6.234375 -10.828125 L 6.28125 -11.15625 L 6.328125 -11.4375 L 6.28125 -11.734375 L 6.28125 -12.03125 L 6.328125 -12.375 L 6.234375 -12.671875 L 6.265625 -12.984375 L 6.296875 -13.28125 L 6.234375 -13.53125 L 6.328125 -13.875 L 6.265625 -14.140625 L 5.953125 -14.5 L 5.6875 -14.484375 L 5.328125 -14.484375 L 5.109375 -14.453125 L 4.71875 -14.484375 L 4.453125 -14.484375 L 4.203125 -14.5 L 3.8125 -14.484375 L 3.609375 -14.453125 L 2.953125 -14.453125 L 2.59375 -14.5 L 2.359375 -14.453125 L 1.40625 -14.453125 L 1.171875 -14.5 L 0.875 -14.5 L 0.515625 -14.78125 L 0.53125 -15.0625 L 0.53125 -15.3125 L 0.515625 -15.609375 L 0.53125 -15.84375 L 0.828125 -16.1875 L 1.15625 -16.140625 L 1.359375 -16.171875 L 1.734375 -16.171875 L 2.0625 -16.140625 L 2.328125 -16.171875 L 2.59375 -16.140625 L 2.90625 -16.1875 L 3.234375 -16.171875 L 3.515625 -16.171875 L 3.765625 -16.140625 L 4.0625 -16.140625 L 4.359375 -16.171875 L 4.6875 -16.140625 L 4.921875 -16.140625 L 5.25 -16.1875 L 5.609375 -16.140625 L 5.8125 -16.171875 L 6.21875 -16.140625 L 6.484375 -16.140625 L 6.796875 -16.1875 L 7.09375 -16.1875 L 7.359375 -16.140625 L 7.625 -16.171875 L 8.203125 -16.171875 L 8.5 -16.1875 L 8.875 -16.140625 L 9.1875 -16.1875 L 9.46875 -16.140625 L 9.703125 -16.140625 L 10.0625 -16.1875 L 10.375 -16.140625 L 10.578125 -16.171875 L 10.921875 -16.1875 L 11.203125 -16.1875 L 11.5625 -16.171875 L 11.796875 -16.1875 L 12.078125 -16.140625 L 12.453125 -16.140625 L 12.71875 -16.171875 L 13.625 -16.171875 Z M 13.8125 -15.890625 "/></g></g></g><g fill="#000000" fill-opacity="1"><g transform="translate(31.033173, 61.406857)"><g><path d="M 7.921875 -12.234375 L 8.21875 -12.28125 L 8.453125 -12.1875 L 8.796875 -12.21875 L 9.046875 -12.140625 L 9.375 -12.09375 L 9.671875 -12.015625 L 9.890625 -11.921875 L 10.234375 -11.796875 L 10.4375 -11.6875 L 11 -11.40625 L 11.171875 -11.21875 L 11.53125 -11.015625 L 11.703125 -10.859375 L 11.9375 -10.640625 L 12.09375 -10.4375 L 12.328125 -10.203125 L 12.421875 -9.953125 L 12.65625 -9.71875 L 12.8125 -9.421875 L 12.890625 -9.1875 L 12.984375 -8.890625 L 13.125 -8.640625 L 13.234375 -8.3125 L 13.34375 -8.03125 L 13.34375 -7.78125 L 13.4375 -7.5 L 13.515625 -7.15625 L 13.578125 -6.875 L 13.578125 -6.578125 L 13.53125 -6.28125 L 13.5625 -6 L 13.625 -5.703125 L 13.640625 -5.359375 L 13.25 -5.109375 L 12.953125 -5.078125 L 12.671875 -5.078125 L 12.421875 -5.0625 L 12.125 -5.109375 L 11.796875 -5.109375 L 11.53125 -5.078125 L 11.125 -5.109375 L 10.8125 -5.0625 L 10.53125 -5.109375 L 10.203125 -5.078125 L 10 -5.109375 L 9.671875 -5.0625 L 9.375 -5.078125 L 9 -5.0625 L 8.171875 -5.0625 L 7.828125 -5.109375 L 6.96875 -5.109375 L 6.625 -5.078125 L 5.734375 -5.078125 L 5.40625 -5.0625 L 4.78125 -5.0625 L 4.53125 -5.109375 L 4.203125 -5.0625 L 3.25 -5.0625 L 3.078125 -4.796875 L 3.1875 -4.53125 L 3.234375 -4.25 L 3.375 -3.953125 L 3.4375 -3.6875 L 3.609375 -3.46875 L 3.78125 -3.1875 L 4.015625 -3.03125 L 4.265625 -2.8125 L 4.4375 -2.5625 L 4.96875 -2.234375 L 5.125 -2.09375 L 5.40625 -1.984375 L 5.734375 -1.84375 L 5.953125 -1.734375 L 6.234375 -1.65625 L 6.5625 -1.609375 L 7.1875 -1.4375 L 7.40625 -1.453125 L 7.734375 -1.390625 L 7.984375 -1.359375 L 8.390625 -1.359375 L 8.890625 -1.34375 L 9.234375 -1.359375 L 9.578125 -1.359375 L 10.1875 -1.453125 L 10.46875 -1.546875 L 10.765625 -1.578125 L 11.03125 -1.65625 L 11.359375 -1.734375 L 11.921875 -1.875 L 12.140625 -1.984375 L 12.46875 -2.078125 L 12.71875 -1.84375 L 12.625 -1.484375 L 12.703125 -1.203125 L 12.625 -0.828125 L 12.3125 -0.375 L 12.015625 -0.25 L 11.78125 -0.15625 L 11.5 -0.0625 L 11.171875 -0.046875 L 10.8125 0.0625 L 10.546875 0.09375 L 10.25 0.1875 L 9.671875 0.203125 L 9.359375 0.234375 L 8.953125 0.28125 L 8.125 0.296875 L 7.484375 0.234375 L 7.234375 0.234375 L 6.90625 0.1875 L 6.578125 0.109375 L 6.296875 0.09375 L 5.953125 0 L 5.703125 -0.0625 L 5.375 -0.109375 L 5.15625 -0.234375 L 4.875 -0.375 L 4.578125 -0.46875 L 4.34375 -0.625 L 4.109375 -0.734375 L 3.78125 -0.921875 L 3.609375 -1.0625 L 3.28125 -1.25 L 2.890625 -1.640625 L 2.671875 -1.828125 L 2.515625 -2.03125 L 2.265625 -2.3125 L 2.09375 -2.546875 L 2.015625 -2.765625 L 1.828125 -3.03125 L 1.65625 -3.328125 L 1.59375 -3.578125 L 1.53125 -3.90625 L 1.34375 -4.1875 L 1.296875 -4.4375 L 1.296875 -4.71875 L 1.171875 -5.015625 L 1.15625 -5.328125 L 1.21875 -5.609375 L 1.125 -6.234375 L 1.15625 -6.53125 L 1.203125 -6.8125 L 1.203125 -7.140625 L 1.3125 -7.390625 L 1.390625 -7.734375 L 1.4375 -8.015625 L 1.546875 -8.265625 L 1.828125 -8.828125 L 1.875 -9.125 L 2.015625 -9.359375 L 2.140625 -9.609375 L 2.375 -9.8125 L 2.609375 -10.109375 L 2.765625 -10.328125 L 2.953125 -10.546875 L 3.203125 -10.6875 L 3.375 -10.921875 L 3.671875 -11.109375 L 3.875 -11.296875 L 4.109375 -11.4375 L 4.671875 -11.6875 L 4.921875 -11.796875 L 5.171875 -11.875 L 5.46875 -11.96875 L 5.8125 -12.0625 L 6.125 -12.125 L 6.328125 -12.1875 L 6.625 -12.234375 L 6.953125 -12.265625 L 7.296875 -12.234375 Z M 7.109375 -10.640625 L 6.875 -10.59375 L 6.609375 -10.53125 L 6.265625 -10.53125 L 6 -10.421875 L 5.640625 -10.34375 L 5.40625 -10.203125 L 5.125 -10.0625 L 4.84375 -9.9375 L 4.640625 -9.796875 L 4.390625 -9.5625 L 4.140625 -9.375 L 3.953125 -9.125 L 3.734375 -8.9375 L 3.609375 -8.640625 L 3.515625 -8.421875 L 3.375 -8.171875 L 3.1875 -7.875 L 3.078125 -7.625 L 3 -7.296875 L 2.984375 -7.015625 L 3.234375 -6.703125 L 3.484375 -6.71875 L 3.875 -6.703125 L 4.15625 -6.75 L 4.40625 -6.703125 L 4.734375 -6.75 L 5.0625 -6.703125 L 5.265625 -6.75 L 5.59375 -6.703125 L 6.484375 -6.703125 L 7.109375 -6.75 L 7.71875 -6.703125 L 7.96875 -6.75 L 8.265625 -6.703125 L 9.421875 -6.703125 L 9.75 -6.75 L 10.09375 -6.703125 L 10.328125 -6.75 L 10.625 -6.71875 L 10.921875 -6.75 L 11.21875 -6.75 L 11.5 -6.703125 L 11.78125 -7.015625 L 11.703125 -7.296875 L 11.65625 -7.578125 L 11.546875 -7.875 L 11.546875 -8.125 L 11.40625 -8.40625 L 11.203125 -8.734375 L 11.015625 -8.921875 L 10.90625 -9.21875 L 10.671875 -9.375 L 10.4375 -9.625 L 10.28125 -9.8125 L 10.015625 -9.953125 L 9.796875 -10.140625 L 9.53125 -10.203125 L 9.171875 -10.375 L 8.9375 -10.421875 L 8.609375 -10.5 L 8.390625 -10.546875 L 8.015625 -10.59375 L 7.78125 -10.59375 Z M 7.109375 -10.640625 "/></g></g></g><g fill="#000000" fill-opacity="1"><g transform="translate(45.810405, 61.406857)"><g><path d="M 8.078125 0.25 L 7.71875 0.296875 L 7.4375 0.28125 L 7.15625 0.203125 L 6.8125 0.1875 L 6.5625 0.109375 L 6.21875 0.0625 L 5.953125 0.046875 L 5.640625 -0.09375 L 5.328125 -0.140625 L 5.03125 -0.25 L 4.78125 -0.34375 L 4.578125 -0.515625 L 4.21875 -0.59375 L 4.015625 -0.765625 L 3.78125 -0.921875 L 3.5625 -1.109375 L 3.296875 -1.265625 L 3.078125 -1.484375 L 2.8125 -1.65625 L 2.625 -1.875 L 2.453125 -2.125 L 2.3125 -2.328125 L 2.078125 -2.625 L 1.921875 -2.84375 L 1.75 -3.09375 L 1.734375 -3.421875 L 1.609375 -3.65625 L 1.53125 -3.921875 L 1.390625 -4.25 L 1.265625 -4.5 L 1.25 -4.796875 L 1.21875 -5.109375 L 1.21875 -5.421875 L 1.15625 -5.6875 L 1.15625 -6.28125 L 1.171875 -6.609375 L 1.171875 -6.875 L 1.25 -7.15625 L 1.296875 -7.5 L 1.34375 -7.765625 L 1.40625 -8.078125 L 1.59375 -8.3125 L 1.609375 -8.609375 L 1.828125 -8.921875 L 1.9375 -9.171875 L 2.09375 -9.421875 L 2.21875 -9.65625 L 2.375 -9.890625 L 2.609375 -10.109375 L 2.796875 -10.390625 L 3 -10.59375 L 3.203125 -10.8125 L 3.390625 -11 L 3.90625 -11.3125 L 4.140625 -11.4375 L 4.40625 -11.5625 L 4.71875 -11.734375 L 4.9375 -11.796875 L 5.265625 -11.9375 L 5.546875 -12.03125 L 5.890625 -12.0625 L 6.1875 -12.125 L 6.390625 -12.21875 L 6.671875 -12.1875 L 7 -12.265625 L 7.296875 -12.265625 L 7.890625 -12.234375 L 8.265625 -12.265625 L 8.5 -12.265625 L 8.84375 -12.1875 L 9.171875 -12.171875 L 9.484375 -12.125 L 9.71875 -12.015625 L 10.015625 -11.9375 L 10.25 -11.921875 L 10.625 -11.796875 L 10.859375 -11.6875 L 11.203125 -11.546875 L 11.40625 -11.4375 L 11.734375 -11.34375 L 11.921875 -11.15625 L 12.171875 -11.015625 L 12.515625 -10.875 L 12.5 -10.421875 L 12.40625 -10.140625 L 12.265625 -9.90625 L 12.0625 -9.671875 L 11.640625 -9.515625 L 11.359375 -9.65625 L 11.125 -9.8125 L 10.8125 -9.953125 L 10.46875 -10.046875 L 10.1875 -10.1875 L 9.96875 -10.28125 L 9.625 -10.375 L 9.328125 -10.421875 L 9.078125 -10.46875 L 8.78125 -10.53125 L 8.46875 -10.546875 L 8.171875 -10.578125 L 7.890625 -10.640625 L 7.28125 -10.625 L 6.671875 -10.546875 L 6.34375 -10.53125 L 6.03125 -10.421875 L 5.765625 -10.34375 L 5.5 -10.25 L 5.125 -10.109375 L 4.9375 -9.953125 L 4.640625 -9.796875 L 4.34375 -9.609375 L 4.1875 -9.421875 L 4.015625 -9.171875 L 3.8125 -8.953125 L 3.578125 -8.65625 L 3.484375 -8.421875 L 3.328125 -8.125 L 3.1875 -7.890625 L 3.09375 -7.59375 L 2.984375 -7.296875 L 2.953125 -6.953125 L 2.9375 -6.671875 L 2.90625 -6.34375 L 2.890625 -5.75 L 2.984375 -5.421875 L 2.984375 -5.125 L 3.046875 -4.84375 L 3.125 -4.578125 L 3.28125 -4.25 L 3.34375 -4.015625 L 3.46875 -3.734375 L 3.625 -3.46875 L 3.828125 -3.234375 L 4 -2.984375 L 4.21875 -2.796875 L 4.5 -2.5625 L 4.71875 -2.40625 L 4.921875 -2.1875 L 5.25 -2.0625 L 5.515625 -1.9375 L 5.8125 -1.828125 L 6.046875 -1.703125 L 6.71875 -1.53125 L 6.921875 -1.5 L 7.234375 -1.453125 L 7.59375 -1.390625 L 7.921875 -1.359375 L 8.25 -1.390625 L 8.84375 -1.359375 L 9.375 -1.359375 L 10.015625 -1.453125 L 10.375 -1.5 L 10.59375 -1.546875 L 10.921875 -1.609375 L 11.203125 -1.6875 L 11.546875 -1.734375 L 11.828125 -1.828125 L 12.171875 -1.96875 L 12.375 -1.734375 L 12.375 -1.453125 L 12.359375 -1.125 L 12.234375 -0.8125 L 11.984375 -0.328125 L 11.703125 -0.1875 L 11.484375 -0.09375 L 11.109375 0 L 10.875 0.0625 L 10.1875 0.1875 L 9.90625 0.234375 L 9.5625 0.25 L 9 0.25 L 8.6875 0.28125 Z M 8.078125 0.25 "/></g></g></g><g fill="#000000" fill-opacity="1"><g transform="translate(59.456261, 61.406857)"><g><path d="M 8.421875 -12.28125 L 8.6875 -12.234375 L 9 -12.234375 L 9.359375 -12.21875 L 9.578125 -12.140625 L 9.890625 -12.09375 L 10.234375 -11.96875 L 10.484375 -11.921875 L 10.765625 -11.796875 L 11.078125 -11.609375 L 11.34375 -11.5 L 11.609375 -11.34375 L 11.796875 -11.125 L 12.078125 -10.953125 L 12.3125 -10.71875 L 12.46875 -10.4375 L 12.625 -10.203125 L 12.71875 -9.953125 L 12.84375 -9.671875 L 13.03125 -9.40625 L 13.046875 -9.078125 L 13.1875 -8.796875 L 13.234375 -8.515625 L 13.296875 -8.203125 L 13.328125 -7.921875 L 13.328125 -7.625 L 13.296875 -7.015625 L 13.328125 -6.75 L 13.34375 -6.421875 L 13.296875 -6.171875 L 13.34375 -5.890625 L 13.328125 -5.546875 L 13.296875 -5.265625 L 13.34375 -4.96875 L 13.375 -4.6875 L 13.375 -4.40625 L 13.28125 -4.109375 L 13.34375 -3.765625 L 13.328125 -3.515625 L 13.328125 -3.1875 L 13.296875 -2.9375 L 13.296875 -2.625 L 13.28125 -2.328125 L 13.375 -2.015625 L 13.296875 -1.703125 L 13.328125 -1.4375 L 13.328125 -1.171875 L 13.34375 -0.875 L 13.328125 -0.546875 L 13.28125 -0.25 L 13 0.046875 L 12.71875 0.015625 L 12.171875 0.015625 L 11.84375 0.0625 L 11.59375 -0.25 L 11.609375 -0.546875 L 11.640625 -0.90625 L 11.65625 -1.15625 L 11.609375 -1.453125 L 11.640625 -1.78125 L 11.5625 -2.09375 L 11.65625 -2.421875 L 11.5625 -2.71875 L 11.65625 -3.03125 L 11.640625 -3.28125 L 11.5625 -3.578125 L 11.5625 -3.921875 L 11.65625 -4.203125 L 11.59375 -4.484375 L 11.5625 -4.84375 L 11.59375 -5.15625 L 11.609375 -5.421875 L 11.5625 -5.734375 L 11.640625 -6.046875 L 11.609375 -6.328125 L 11.5625 -6.65625 L 11.65625 -6.953125 L 11.640625 -7.53125 L 11.5625 -7.828125 L 11.5625 -8.171875 L 11.453125 -8.46875 L 11.390625 -8.75 L 11.21875 -9.078125 L 11.078125 -9.3125 L 10.921875 -9.5625 L 10.671875 -9.796875 L 10.484375 -9.96875 L 10.15625 -10.140625 L 9.953125 -10.234375 L 9.609375 -10.390625 L 9.28125 -10.4375 L 9 -10.546875 L 8.453125 -10.625 L 7.484375 -10.625 L 7.234375 -10.59375 L 6.875 -10.53125 L 6.578125 -10.5 L 6.390625 -10.4375 L 6.046875 -10.328125 L 5.75 -10.234375 L 5.59375 -10.109375 L 5.265625 -9.9375 L 5.0625 -9.75 L 4.84375 -9.578125 L 4.640625 -9.328125 L 4.453125 -9.125 L 4.359375 -8.84375 L 4.21875 -8.609375 L 4.140625 -8.34375 L 4.015625 -8.015625 L 3.875 -7.765625 L 3.90625 -7.4375 L 3.828125 -7.140625 L 3.828125 -6.609375 L 3.8125 -6.296875 L 3.859375 -6 L 3.8125 -5.6875 L 3.875 -5.375 L 3.8125 -5.0625 L 3.875 -4.78125 L 3.8125 -4.5 L 3.875 -4.1875 L 3.875 -3.859375 L 3.828125 -3.609375 L 3.90625 -3.296875 L 3.875 -3 L 3.8125 -2.65625 L 3.8125 -2.40625 L 3.828125 -2.078125 L 3.8125 -1.78125 L 3.875 -1.484375 L 3.859375 -1.15625 L 3.90625 -0.859375 L 3.828125 -0.59375 L 3.875 -0.25 L 3.515625 0.046875 L 3.25 -0.015625 L 2.953125 0.046875 L 2.75 -0.015625 L 2.40625 0.015625 L 2.171875 -0.28125 L 2.078125 -0.59375 L 2.140625 -0.90625 L 2.125 -1.15625 L 2.078125 -1.5 L 2.09375 -1.796875 L 2.171875 -2.09375 L 2.140625 -2.375 L 2.09375 -2.65625 L 2.125 -2.953125 L 2.078125 -3.296875 L 2.078125 -3.609375 L 2.125 -3.875 L 2.140625 -4.15625 L 2.171875 -4.5 L 2.078125 -4.75 L 2.140625 -5.109375 L 2.125 -5.40625 L 2.078125 -5.6875 L 2.125 -5.953125 L 2.078125 -6.265625 L 2.125 -6.5625 L 2.171875 -6.828125 L 2.171875 -7.1875 L 2.125 -7.453125 L 2.078125 -7.78125 L 2.140625 -8.03125 L 2.125 -8.390625 L 2.078125 -8.640625 L 2.078125 -8.9375 L 2.140625 -9.234375 L 2.140625 -9.53125 L 2.09375 -9.859375 L 2.125 -10.1875 L 2.171875 -10.484375 L 2.09375 -10.765625 L 2.125 -11.078125 L 2.125 -11.359375 L 2.140625 -11.609375 L 2.140625 -11.96875 L 2.078125 -12.234375 L 2.09375 -12.515625 L 2.125 -12.859375 L 2.09375 -13.140625 L 2.09375 -13.71875 L 2.171875 -14.015625 L 2.125 -14.34375 L 2.140625 -14.671875 L 2.140625 -14.96875 L 2.125 -15.234375 L 2.140625 -15.5625 L 2.09375 -15.84375 L 2.078125 -16.140625 L 2.09375 -16.421875 L 2.453125 -16.75 L 2.9375 -16.828125 L 3.234375 -16.859375 L 3.578125 -16.921875 L 3.828125 -16.671875 L 3.875 -16.34375 L 3.859375 -16.046875 L 3.90625 -15.75 L 3.828125 -15.5 L 3.828125 -15.15625 L 3.90625 -14.875 L 3.90625 -14.59375 L 3.8125 -14.296875 L 3.859375 -13.96875 L 3.8125 -13.671875 L 3.90625 -13.390625 L 3.875 -13.09375 L 3.875 -12.765625 L 3.8125 -12.46875 L 3.828125 -12.140625 L 3.8125 -11.875 L 3.8125 -10.953125 L 3.828125 -10.6875 L 4.015625 -10.640625 L 4.25 -10.859375 L 4.484375 -11.03125 L 4.6875 -11.203125 L 4.96875 -11.390625 L 5.171875 -11.546875 L 5.453125 -11.734375 L 5.703125 -11.84375 L 6 -11.921875 L 6.296875 -12.03125 L 6.65625 -12.078125 L 6.90625 -12.171875 L 7.25 -12.1875 L 7.53125 -12.265625 L 7.828125 -12.28125 Z M 8.421875 -12.28125 "/></g></g></g><g fill="#000000" fill-opacity="1"><g transform="translate(70.926977, 5.96224)"><g><path d="M 2.265625 -2.828125 L 2.265625 -2.359375 L 1.453125 -2.359375 L 1.453125 0 L 0.890625 0 L 0.890625 -2.359375 L 0.078125 -2.359375 L 0.078125 -2.828125 Z M 2.265625 -2.828125 "/></g></g></g><g fill="#000000" fill-opacity="1"><g transform="translate(73.267219, 5.96224)"><g><path d="M 0.875 0 L 0.359375 0 L 0.359375 -2.828125 L 1.09375 -2.828125 L 1.8125 -0.75 L 1.84375 -0.75 L 2.5625 -2.828125 L 3.28125 -2.828125 L 3.28125 0 L 2.75 0 L 2.75 -1.859375 L 2.703125 -1.875 L 2.046875 0 L 1.578125 0 L 0.921875 -1.875 L 0.875 -1.859375 Z M 0.875 0 "/></g></g></g></svg>